# xmcd
#
# Track frame offsets: 
#        150
#        13990
#        27892
#
# Disc length: 382 seconds
#
# Revision: 0
# Processed by: cddbd v1.5.2PL0 Copyright (c) Steve Scherf et al.
# Submitted via: ExactAudioCopy v0.99pb4
#
DISCID=1c017c03
DTITLE=Juelz Santana - Oh Yes [CDS)
DYEAR=2005
DGENRE=Hip-Hop
TTITLE0=Oh Yes (Radio)
TTITLE1=Oh Yes (Instrumental)
TTITLE2=Oh Yes (Call Out)
EXTD=
EXTT0=
EXTT1=
EXTT2=
PLAYORDER=
